HIERARCHY
ROOT Hips
{
	OFFSET 0.000000 0.000000 0.000000 
	CHANNELS 6 Xposition Yposition Zposition Zrotation Yrotation Xrotation
	JOINT LeftUpLeg
	{
		OFFSET 1.363060 -1.794630 0.839290 
		CHANNELS 3 Zrotation Yrotation Xrotation
		JOINT LeftLeg
		{
			OFFSET 2.448110 -6.726130 0.000000 
			CHANNELS 3 Zrotation Yrotation Xrotation
			JOINT LeftFoot
			{
				OFFSET 2.562200 -7.039590 0.000000 
				CHANNELS 3 Zrotation Yrotation Xrotation
				JOINT LeftToeBase
				{
					OFFSET 0.157640 -0.433110 2.322550 
					CHANNELS 3 Zrotation Yrotation Xrotation
					End Site
					{
						OFFSET 0.000000 0.000000 0.000000 
					}
				}
			}
		}
	}
	JOINT RightUpLeg
	{
		OFFSET -1.305520 -1.794630 0.839290 
		CHANNELS 3 Zrotation Yrotation Xrotation
		JOINT RightLeg
		{
			OFFSET -2.542530 -6.985550 0.000000 
			CHANNELS 3 Zrotation Yrotation Xrotation
			JOINT RightFoot
			{
				OFFSET -2.568260 -7.056230 0.000000 
				CHANNELS 3 Zrotation Yrotation Xrotation
				JOINT RightToeBase
				{
					OFFSET -0.164730 -0.452590 2.363150 
					CHANNELS 3 Zrotation Yrotation Xrotation
					End Site
					{
						OFFSET 0.000000 0.000000 0.000000 
					}
				}
			}
		}
	}
	JOINT Spine
	{
		OFFSET 0.028270 2.035590 -0.193380 
		CHANNELS 3 Zrotation Yrotation Xrotation
		JOINT Spine1
		{
			OFFSET 0.056720 2.048850 -0.042750 
			CHANNELS 3 Zrotation Yrotation Xrotation
			JOINT Neck1
			{
				OFFSET -0.054170 1.746240 0.172020 
				CHANNELS 3 Zrotation Yrotation Xrotation
				JOINT Head
				{
					OFFSET 0.104070 1.761360 -0.123970 
					CHANNELS 3 Zrotation Yrotation Xrotation
					End Site
					{
						OFFSET 0.000000 0.000000 0.000000 
					}
				}
			}
			JOINT LeftArm
			{
				OFFSET 3.362410 1.200890 -0.311210 
				CHANNELS 3 Zrotation Yrotation Xrotation
				JOINT LeftForeArm
				{
					OFFSET 4.983000 -0.000000 -0.000000 
					CHANNELS 3 Zrotation Yrotation Xrotation
					JOINT LeftHand
					{
						OFFSET 3.483560 -0.000000 -0.000000 
						CHANNELS 3 Zrotation Yrotation Xrotation
						JOINT LeftHandIndex1
						{
							OFFSET 0.715260 -0.000000 -0.000000 
							CHANNELS 3 Zrotation Yrotation Xrotation
							End Site
							{
								OFFSET 0.000000 0.000000 0.000000 
							}
						}
					}
				}
			}
			JOINT RightArm
			{
				OFFSET -3.136600 1.374050 -0.404650 
				CHANNELS 3 Zrotation Yrotation Xrotation
				JOINT RightForeArm
				{
					OFFSET -5.241900 -0.000000 -0.000000 
					CHANNELS 3 Zrotation Yrotation Xrotation
					JOINT RightHand
					{
						OFFSET -3.444170 -0.000000 -0.000000 
						CHANNELS 3 Zrotation Yrotation Xrotation
						JOINT RightHandIndex1
						{
							OFFSET -0.622530 -0.000000 -0.000000 
							CHANNELS 3 Zrotation Yrotation Xrotation
							End Site
							{
								OFFSET 0.000000 0.000000 0.000000 
							}
						}
					}
				}
			}
		}
	}
}
MOTION
Frames: 6
Frame Time: 0.041667
5.705635 17.488907 27.775238 -142.668293 -85.761698 159.017690 -25.062005 -19.487401 -9.242568 -6.261376 6.373084 11.454457 -1.591910 10.448995 10.669918 0.475000 -4.420200 -12.262000 29.448327 25.334261 -16.457815 4.502924 -13.003791 22.949438 5.742682 -20.883368 -3.327985 -0.012300 -0.717100 1.970800 0.368342 3.335629 -5.196246 -5.042902 1.707856 2.739489 2.799694 8.210304 10.503504 -2.494300 4.242400 11.468300 -74.216945 5.649896 37.475108 14.484749 -18.737309 -3.684079 -1.223705 -1.669470 -29.022021 -7.125000 0.000000 0.000000 80.158493 -4.759275 25.535657 -17.061267 19.396420 -3.734498 0.249316 1.452313 -0.327681 7.125000 0.000000 0.000000 
5.713338 17.487344 27.778141 -145.071435 -85.879377 161.363519 -25.355025 -19.476527 -8.910417 -6.307367 6.146861 10.982095 -1.627763 10.608365 10.857981 0.489900 -4.487800 -12.453200 29.188263 25.375489 -16.572298 4.455513 -13.110860 23.189792 5.735775 -20.829416 -3.460053 -0.015400 -0.800000 2.198700 0.347708 3.309802 -5.188669 -5.062374 1.688675 2.797589 2.532480 8.234658 10.618440 -2.650800 4.221700 11.676300 -73.832930 5.418288 37.030551 14.396014 -18.625330 -3.646391 -1.110334 -1.622414 -28.390646 -7.125000 0.000000 0.000000 80.098917 -4.630188 24.144508 -17.138601 19.488350 -3.768872 0.170303 1.468444 0.453032 7.125000 0.000000 0.000000 
5.722382 17.488572 27.780374 -147.471691 -85.995676 163.787782 -25.593096 -19.448887 -8.717914 -6.350463 5.957961 10.565520 -1.626032 10.660568 11.011958 0.477100 -4.429700 -12.288800 28.886375 25.446709 -16.757822 4.419171 -13.212817 23.376871 5.734287 -20.804068 -3.553962 -0.018100 -0.869500 2.389800 0.328408 3.281701 -5.196908 -5.007698 1.664056 2.773700 2.471739 8.365134 10.663624 -2.592900 4.244300 11.769400 -73.471236 5.221312 36.461940 14.303965 -18.508141 -3.604938 -1.031530 -1.578752 -27.673714 -7.125000 0.000000 0.000000 79.854758 -4.686760 23.355104 -17.339800 19.736154 -3.864401 0.074749 1.497516 0.733789 7.125000 0.000000 0.000000 
5.731537 17.487455 27.783835 -149.458799 -86.084888 165.742119 -25.826482 -19.424589 -8.461924 -6.388234 5.763050 10.153060 -1.643585 10.768936 11.192456 0.492600 -4.500100 -12.488200 28.668917 25.434922 -16.883544 4.378358 -13.304980 23.577080 5.726303 -20.759805 -3.593056 -0.017300 -0.848600 2.332400 0.305656 3.238766 -5.193806 -5.039382 1.632341 2.755158 2.308102 8.509695 10.620168 -2.623300 4.273000 11.787500 -72.940138 4.934943 35.713881 14.136826 -18.297446 -3.529882 -0.938968 -1.499802 -26.919484 -7.125000 0.000000 0.000000 79.629141 -4.651727 21.811647 -17.496839 19.939993 -3.945821 -0.067497 1.519295 2.251961 7.125000 0.000000 0.000000 
5.740915 17.486897 27.786179 -151.470728 -86.170009 167.731348 -26.045441 -19.403356 -8.243211 -6.422076 5.589690 9.782256 -1.654444 10.852860 11.347678 0.498600 -4.527000 -12.564400 28.445404 25.466652 -17.004315 4.342858 -13.389011 23.748903 5.725285 -20.737838 -3.653710 -0.018400 -0.875200 2.405400 0.288933 3.184539 -5.194889 -5.038185 1.596534 2.748696 2.165208 8.615621 10.649006 -2.650100 4.286400 11.887100 -72.429438 4.673205 35.015982 13.988472 -18.115261 -3.465744 -0.854819 -1.431715 -26.230936 -7.125000 0.000000 0.000000 79.370710 -4.627566 20.465968 -17.667385 20.160318 -4.042412 -0.214426 1.554253 3.453858 7.125000 0.000000 0.000000 
5.750963 17.486116 27.788300 -153.222435 -86.245436 169.462083 -26.235478 -19.390693 -8.066845 -6.450092 5.446944 9.473305 -1.662349 10.923717 11.483666 0.506000 -4.560000 -12.657800 28.248008 25.496425 -17.113718 4.311363 -13.463540 23.898728 5.726967 -20.728013 -3.698371 -0.019200 -0.893900 2.456900 0.275836 3.113104 -5.196750 -5.034972 1.553303 2.739679 2.031832 8.720397 10.675079 -2.672400 4.300100 11.987600 -71.850873 4.397429 34.264020 13.823705 -17.918064 -3.395605 -0.779814 -1.359261 -25.573667 -7.125000 0.000000 0.000000 79.050726 -4.600136 19.050085 -17.846234 20.398181 -4.155635 -0.381092 1.597785 4.843454 7.125000 0.000000 0.000000 
